<svg id="Capa_1" enable-background="new 0 0 512 512" height="512" viewBox="0 0 512 512" width="512" xmlns="http://www.w3.org/2000/svg"><g><g><path clip-rule="evenodd" d="m355.412 364.169 21.273-47.298 8.906-32.911c3.008-11.126-2.949-21.756-15.915-21.756h-44.474c-4.234 3.709-18.952 7.155-23.566 10.308v58.784l5.256 20.325 10.184 39.446z" fill="#eff6ff" fill-rule="evenodd"/></g><g><path clip-rule="evenodd" d="m210.355 331.297v-20.85-37.934c-.204-.146-.409-.292-.642-.438-4.351-3.037-8.585-6.337-12.615-9.87h-54.753c-12.995 0-18.952 10.63-15.944 21.756l8.936 32.911 27.947 49.702 33.579 17.062 8.265-32.013 1.343-5.286z" fill="#eff6ff" fill-rule="evenodd"/></g><g><path clip-rule="evenodd" d="m229.628 446.441-40.794-71.633-22.164-23.975-31.333-33.962c-43.89 15.039-84.947 39.014-88.247 85.621l-6.892 97.36c-.672 9.695 1.84 12.148 11.943 12.148h65.762l70.93-.029z" fill="#a0ddfa" fill-rule="evenodd"/></g><g><path clip-rule="evenodd" d="m459.883 512h-73.524l-63.202-.031v-8.55l-27.042-49.088 27.042-79.52 22.17-23.983 31.359-33.955c43.865 15.041 84.918 39.013 88.214 85.618l6.892 97.362c.701 9.695-1.834 12.147-11.909 12.147z" fill="#a0ddfa" fill-rule="evenodd"/></g><g><path clip-rule="evenodd" d="m322.9 404.974-26.28 53.497 26.28 53.322-134.068.175 34.491-55.362-34.491-52.271v-29.525l5.419-20.995.567-2.194 3.379-13.083 1.875-7.242v-81.209c8.499 5.841 17.585 10.683 27.011 14.196 10.456 3.853 19.687 5.81 28.917 5.81 9.22 0 18.451-1.957 28.907-5.81 9.426-3.513 18.512-8.355 27.042-14.196v81.209l1.762 6.82 3.492 13.506.422 1.7 5.274 21.314v30.338z" fill="#ffbc85" fill-rule="evenodd"/></g><g><path clip-rule="evenodd" d="m158.133 169.429-17.57-29.115h-16.937c-9.695 0-17.638 8.147-17.638 17.843v11.126c0 18.865 18.806 29.056 38.108 29.261-2.306-7.797 14.037-29.115 14.037-29.115z" fill="#f5a96c" fill-rule="evenodd"/></g><g><path clip-rule="evenodd" d="m367.896 198.544c19.302-.204 38.108-10.396 38.108-29.261v-11.126c0-9.695-7.914-17.843-17.608-17.843h-16.937l-22.211 32.241c-.001 7.388 20.955 18.192 18.648 25.989z" fill="#f5a96c" fill-rule="evenodd"/></g><g><path clip-rule="evenodd" d="m367.896 198.544c2.307-7.797 3.563-15.536 3.563-22.924v-35.305c-39.101-29.57-59.512-51.547-107.561-56.355-23.329-2.334-108.512-4.561-123.335 56.355v35.305c0 7.388 1.226 15.127 3.533 22.924 6.687 22.602 22.31 45.906 42.692 63.661 4.059 3.533 8.264 6.833 12.644 9.87 8.673 6.016 17.988 11.038 27.654 14.601 10.454 3.884 19.682 5.811 28.909 5.811s18.455-1.927 28.909-5.811c14.542-5.373 28.238-13.959 40.298-24.471 20.414-17.756 36.036-41.059 42.694-63.661z" fill="#ffbc85" fill-rule="evenodd"/></g><g><path clip-rule="evenodd" d="m371.459 140.314c28.851-11.243 39.656-38.401 42.196-69.706.759-9.461.993-10.98-6.892-6.395-12.673 7.359-23.595 11.009-36.297 12.382-21.346-95.491-166.536-95.579-186.305-33.962-40.064-3.563-43.598 37.145-43.598 52.447v45.234c14.046-22.807 40.386-42.402 60.681-30.662 39.802 22.982 93.941 32.064 139.992 32.035 10.599 0 20.762-.467 30.223-1.373z" fill="#7e707d" fill-rule="evenodd"/></g><g><path clip-rule="evenodd" d="m325.204 262.204h44.474c-14.98 18.981-33.26 30.224-54.986 40.649-.905.438-1.81.876-2.745 1.285v-31.626c.204-.146.409-.292.642-.438 4.351-3.036 8.585-6.336 12.615-9.87z" fill="#d9eeff" fill-rule="evenodd"/></g><g><path clip-rule="evenodd" d="m186.789 262.204c-14.805 0-29.639 0-44.445 0 14.951 18.981 33.231 30.224 54.957 40.649.905.438 1.84.876 2.774 1.285v-31.626c-.234-.146-.438-.292-.642-.438-4.38-3.036-8.585-6.336-12.644-9.87z" fill="#d9eeff" fill-rule="evenodd"/></g><g><path clip-rule="evenodd" d="m311.946 310.446v-37.934c-8.527 5.84-17.608 10.688-27.04 14.163-10.454 3.884-19.682 5.811-28.909 5.811s-18.455-1.927-28.909-5.811c-9.432-3.475-18.514-8.323-27.011-14.163v37.934c3.942 1.811 7.943 3.475 12.002 4.964 15.886 5.899 29.902 8.848 43.919 8.848s28.033-2.949 43.948-8.848c4.028-1.489 8.029-3.153 12-4.964z" fill="#f5a96c" fill-rule="evenodd"/></g><g><path clip-rule="evenodd" d="m323.16 503.415v-98.441c-3.65 1.431-7.505 2.716-11.564 3.913-15.915 4.614-34.691 7.301-54.782 7.301-17.112 0-33.231-1.957-47.481-5.373-7.388-1.781-14.28-3.971-20.499-6.483v107.639h1.051 66.112 66.112 1.051z" fill="#fde588" fill-rule="evenodd"/></g><g><path clip-rule="evenodd" d="m323.16 503.415v-98.441c-3.65 1.431-7.505 2.716-11.564 3.913-5.519 1.606-11.389 2.949-17.521 4.059.117 2.628.175 5.286.175 7.943 0 33.904-8.965 65.325-24.208 91.082h52.066 1.051v-8.556z" fill="#fdd76f" fill-rule="evenodd"/></g><g><path clip-rule="evenodd" d="m471.795 499.852-6.892-97.36c-3.3-46.607-44.357-70.582-88.217-85.621l-23.011 24.909c39.188 15.273 73.558 33.962 76.42 76.364l6.279 93.856h23.507c10.074 0 12.615-2.453 11.914-12.148z" fill="#75cef9" fill-rule="evenodd"/></g><g><path clip-rule="evenodd" d="m370.466 76.595c-19.215-85.971-138.824-94.615-176.902-50.52 44.883-15.36 112.075-1.986 137.626 48.738 13.024 2.512 27.07 3.213 39.276 1.782z" fill="#6a5c6b" fill-rule="evenodd"/></g><g><path clip-rule="evenodd" d="m371.459 140.314c28.851-11.243 39.656-38.401 42.196-69.706.759-9.461.993-10.98-6.892-6.395-5.023 2.92-9.782 5.256-14.484 7.096-20.12 67.632-124.982 45.205-195.416 36.298 1.489.526 2.949 1.197 4.38 2.044 39.802 22.982 93.941 32.064 139.992 32.035 10.6.001 20.763-.466 30.224-1.372z" fill="#6a5c6b" fill-rule="evenodd"/></g><g><path d="m117.904 454.567c-4.265 0-7.726 3.461-7.726 7.726v49.707h15.453v-49.706c0-4.265-3.462-7.727-7.727-7.727zm276.182 0c-4.265 0-7.726 3.461-7.726 7.726v49.707h15.453v-49.706c-.001-4.265-3.452-7.727-7.727-7.727z" fill="#75cef9"/></g><g><path d="m235.056 374.924c-.999.433-2.04.628-3.06.628-2.988 0-5.841-1.741-7.098-4.667l-3.389-7.85c-3.709-8.695-4.852-9.457-9.436-9.467l-17.822.247.567-2.194 3.379-13.083 13.526-.422h.237c15.71 0 20.356 10.879 23.756 18.821l3.369 7.829c1.689 3.926-.114 8.469-4.029 10.158z" fill="#f5a96c"/></g><g><path d="m317.625 353.321-15.813.247c-4.646 0-5.779.701-9.55 9.457l-3.348 7.84c-1.257 2.936-4.11 4.687-7.108 4.687-1.01 0-2.04-.196-3.029-.618-3.925-1.679-5.748-6.222-4.069-10.147l3.358-7.85c3.42-7.953 8.097-18.821 23.746-18.821h11.899l3.492 13.506z" fill="#f5a96c"/></g><g><path d="m190.586 191.085c-2.017 0-4.032-.785-5.547-2.347-2.971-3.063-2.896-7.955.167-10.926 9.736-9.443 25.58-9.444 35.316 0 3.063 2.97 3.138 7.862.168 10.925-2.969 3.064-7.862 3.138-10.925.167-3.806-3.69-9.997-3.69-13.8 0-1.501 1.457-3.441 2.181-5.379 2.181z" fill="#6a5c6b"/></g><g><path d="m296.617 191.085c-2.017 0-4.032-.785-5.547-2.347-2.971-3.063-2.896-7.955.167-10.926 9.716-9.423 25.552-9.429 35.305-.012 3.069 2.964 3.155 7.856.191 10.925-2.964 3.07-7.855 3.155-10.926.191-3.818-3.688-10.015-3.694-13.812-.012-1.501 1.457-3.441 2.181-5.378 2.181z" fill="#6a5c6b"/></g><g><path d="m255.88 254.242c-8.791 0-17.05-3.428-23.256-9.652-3.013-3.022-3.005-7.914.017-10.927s7.914-3.006 10.927.017c3.285 3.295 7.657 5.11 12.312 5.11 4.654 0 9.027-1.814 12.311-5.109 3.013-3.023 7.904-3.03 10.927-.017 3.022 3.013 3.03 7.905.017 10.927-6.205 6.223-14.464 9.651-23.255 9.651z" fill="#6a5c6b"/></g><g><path d="m296.129 107.07c-.303 0-.609-.018-.917-.054-36.372-4.296-73.604-24.956-90.169-42.212-2.955-3.078-2.855-7.969.223-10.925 3.079-2.954 7.97-2.855 10.925.223 12.597 13.122 46.003 33.453 80.834 37.567 4.237.501 7.268 4.342 6.767 8.579-.464 3.932-3.802 6.822-7.663 6.822z" fill="#6a5c6b"/></g><g><path d="m357.274 85.053c-24.642 0-53.537-6.576-68.211-19.874-3.162-2.866-3.402-7.752-.537-10.913 2.866-3.162 7.753-3.402 10.913-.537 12.205 11.061 44.975 18.158 70.122 15.194 4.236-.493 8.078 2.53 8.578 6.768s-2.53 8.078-6.768 8.578c-4.43.522-9.182.784-14.097.784z" fill="#6a5c6b"/></g></g></svg>