<svg id="Capa_1" enable-background="new 0 0 502 502" height="512" viewBox="0 0 502 502" width="512" xmlns="http://www.w3.org/2000/svg" xmlns:xlink="http://www.w3.org/1999/xlink"><linearGradient id="lg1"><stop offset="0" stop-color="#ffbe9d"/><stop offset="1" stop-color="#ffd3bd"/></linearGradient><linearGradient id="SVGID_1_" gradientUnits="userSpaceOnUse" x1="62.048" x2="8.006" xlink:href="#lg1" y1="196.474" y2="196.474"/><linearGradient id="SVGID_2_" gradientTransform="matrix(-1 0 0 1 474.397 0)" gradientUnits="userSpaceOnUse" x1="56.816" x2="2.774" xlink:href="#lg1" y1="196.474" y2="196.474"/><linearGradient id="SVGID_3_" gradientUnits="userSpaceOnUse" x1="157.685" x2="82.577" y1="394.507" y2="394.507"><stop offset="0" stop-color="#6ac65e"/><stop offset="1" stop-color="#afd986"/></linearGradient><linearGradient id="SVGID_4_" gradientTransform="matrix(-1 0 0 1 502 0)" gradientUnits="userSpaceOnUse" x1="180.056" x2="104.948" y1="394.507" y2="394.507"><stop offset="0" stop-color="#53aae6"/><stop offset="1" stop-color="#a4d2f0"/></linearGradient><linearGradient id="SVGID_5_" gradientUnits="userSpaceOnUse" x1="239.815" x2="239.815" y1="281.721" y2="437.829"><stop offset="0" stop-color="#d4dbdb"/><stop offset="1" stop-color="#f3f3f3"/></linearGradient><linearGradient id="SVGID_6_" gradientUnits="userSpaceOnUse" x1="239.815" x2="239.815" xlink:href="#lg1" y1="540.142" y2="210.544"/><linearGradient id="SVGID_7_" gradientUnits="userSpaceOnUse" x1="243.637" x2="243.637" y1="164.057" y2="9.296"><stop offset="0" stop-color="#ac6c58"/><stop offset="1" stop-color="#da9b8c"/></linearGradient><linearGradient id="lg2"><stop offset="0" stop-color="#74d2e8"/><stop offset="1" stop-color="#baeaf5"/></linearGradient><linearGradient id="SVGID_8_" gradientUnits="userSpaceOnUse" x1="239.815" x2="239.815" xlink:href="#lg2" y1="478.74" y2="411.993"/><linearGradient id="lg3"><stop offset="0" stop-color="#4e5660"/><stop offset="1" stop-color="#64768d"/></linearGradient><linearGradient id="SVGID_9_" gradientUnits="userSpaceOnUse" x1="384.216" x2="344.56" xlink:href="#lg3" y1="462.17" y2="462.17"/><linearGradient id="SVGID_10_" gradientTransform="matrix(-1 0 0 1 871.243 0)" gradientUnits="userSpaceOnUse" x1="403.459" x2="363.803" xlink:href="#lg3" y1="462.17" y2="462.17"/><linearGradient id="SVGID_11_" gradientUnits="userSpaceOnUse" x1="426" x2="426" xlink:href="#lg2" y1="490.086" y2="428.7"/><linearGradient id="SVGID_12_" gradientUnits="userSpaceOnUse" x1="426" x2="426" y1="444.287" y2="317.449"><stop offset="0" stop-color="#ec6f80"/><stop offset="1" stop-color="#eca0aa"/></linearGradient><linearGradient id="SVGID_13_" gradientUnits="userSpaceOnUse" x1="426" x2="426" xlink:href="#lg2" y1="391.358" y2="348.159"/><linearGradient id="SVGID_14_" gradientUnits="userSpaceOnUse" x1="426" x2="426" xlink:href="#lg3" y1="508.624" y2="434.242"/><g><path d="m110.912 190.372c0-30.628-24.828-55.456-55.456-55.456s-55.456 24.829-55.456 55.456c0 41.919 34.83 67.66 65.458 67.66 30.627.001 45.454-37.032 45.454-67.66z" fill="url(#SVGID_1_)"/><path d="m368.717 190.372c0-30.628 24.828-55.456 55.456-55.456s55.456 24.828 55.456 55.456c0 41.919-34.83 67.66-65.458 67.66s-45.454-37.032-45.454-67.66z" fill="url(#SVGID_2_)"/><path d="m159.995 326.533c-53.726 9.043-87.665 59.958-95.849 111.779-2.004 12.689 7.806 24.17 20.653 24.17h27.233l87.934-135.949z" fill="url(#SVGID_3_)"/><path d="m319.634 326.533c53.726 9.043 87.665 59.958 95.849 111.779 2.004 12.689-7.807 24.17-20.653 24.17h-27.233l-87.935-135.949z" fill="url(#SVGID_4_)"/><path d="m367.597 462.482c0-86.598-57.21-156.799-127.783-156.799s-127.783 70.201-127.783 156.799z" fill="url(#SVGID_5_)"/><ellipse cx="239.814" cy="211.025" fill="url(#SVGID_6_)" rx="183.226" ry="167.284"/><path d="m311.11 33.936c-59.651-64.011-185.716-15.459-202.302 19.77-1.24 2.633-3.605 4.576-6.424 5.301-40.937 10.529-59.052 53.713-63.27 82.876-1.468 10.149 7.268 18.894 17.396 17.285 32.049-5.091 83.464-29.005 104.202-59.87-5.32 6.651-1.552 20.884 2.898 31.334 3.218 7.557 11.912 11.199 19.524 8.113 17.916-7.265 44.255-24.128 56.682-42.403.105 24.809 58.835 66.586 95.702 70.623 7.379.808 14.272-3.934 16.173-11.11 2.612-9.863 3.476-20.989 3.25-28.18 5.848 9.18 38.33 38.57 74.849 47.05 9.688 2.25 18.871-5.341 18.525-15.28-1.652-47.562-28.627-148.045-127.508-122.649-3.506.901-7.23-.213-9.697-2.86z" fill="url(#SVGID_7_)"/><path d="m286.048 462.482c0-26.462-20.699-47.914-46.234-47.914s-46.234 21.452-46.234 47.914z" fill="url(#SVGID_8_)"/><g><path d="m400.598 466.625c-7.928 2.929-24.096 12.153-30.805 28.643-1.973 4.849-8.634 5.498-11.42 1.066-17.402-27.684-8.904-61.908 37.091-71.305z" fill="url(#SVGID_9_)"/><path d="m451.402 466.625c7.928 2.929 24.096 12.153 30.805 28.643 1.973 4.849 8.634 5.498 11.42 1.066 17.402-27.684 8.904-61.908-37.091-71.305z" fill="url(#SVGID_10_)"/><path d="m469.833 466.042c17.765-66.707-2.065-114.356-23.785-144.568-9.814-13.651-30.281-13.651-40.096 0-21.721 30.212-41.55 77.861-23.785 144.568 2.382 8.946 10.553 15.132 19.812 15.132h48.043c9.258 0 17.429-6.186 19.811-15.132z" fill="url(#SVGID_11_)"/><path d="m475.166 439.091c6.805-52.774-10.446-91.645-29.119-117.617-9.814-13.651-30.281-13.651-40.096 0-18.672 25.972-35.923 64.844-29.118 117.617z" fill="url(#SVGID_12_)"/><g><path d="m450.123 469.043c-.825 0-1.664-.103-2.5-.318-5.349-1.377-8.568-6.829-7.191-12.177.433-1.684.844-3.375 1.222-5.027 1.23-5.384 6.588-8.751 11.975-7.523 5.384 1.23 8.753 6.591 7.523 11.975-.418 1.83-.873 3.701-1.352 5.562-1.162 4.511-5.224 7.508-9.677 7.508z" fill="#dff7fa"/><path d="m455.831 423.519c-5.448 0-9.907-4.371-9.995-9.839-.12-7.409-.841-14.744-2.143-21.802-1.003-5.431 2.588-10.646 8.02-11.648 5.425-1.004 10.646 2.588 11.648 8.02 1.503 8.146 2.335 16.594 2.472 25.109.089 5.522-4.315 10.071-9.837 10.16-.055-.001-.11 0-.165 0z" fill="#ffccd3"/></g><circle cx="426" cy="362.155" fill="url(#SVGID_13_)" r="19.762"/><path d="m428.896 429.26h-5.792c-4.954 0-8.971 4.016-8.971 8.971v50.115c0 4.954 4.016 8.971 8.971 8.971h5.792c4.954 0 8.971-4.016 8.971-8.971v-50.115c0-4.955-4.017-8.971-8.971-8.971z" fill="url(#SVGID_14_)"/></g><path d="m146.7 355.112c-6.561 8.565-12.345 18.034-17.218 28.24 33.052 18.216 70.907 27.957 110.332 27.957 19.084 0 37.8-2.284 55.783-6.704 9.649-2.372 15.023-12.682 11.465-21.959-2.974-7.751-11.245-12.121-19.304-10.13-15.281 3.775-31.353 5.794-47.943 5.794-33.999-.001-65.827-8.465-93.115-23.198z" fill="#c2c8cf"/><g><ellipse cx="151.929" cy="238.747" fill="#eaadcd" rx="14.936" ry="12.003"/><ellipse cx="327.7" cy="238.747" fill="#eaadcd" rx="14.936" ry="12.003"/><circle cx="177.536" cy="209.13" fill="#fff" r="29.618"/><ellipse cx="165.57" cy="209.13" fill="#3b3b44" rx="17.652" ry="17.652" transform="matrix(.517 -.856 .856 .517 -99.032 242.813)"/><circle cx="302.093" cy="209.13" fill="#fff" r="29.618"/><g fill="#3b3b44"><ellipse cx="290.128" cy="209.13" rx="17.652" ry="17.652" transform="matrix(.213 -.977 .977 .213 24.017 448.074)"/><path d="m247.405 216.324h-15.181c-3.007 0-5.658 1.976-6.506 4.862-2.672 9.09-5.742 27.748 14.097 27.748 19.838 0 16.769-18.659 14.097-27.748-.849-2.886-3.5-4.862-6.507-4.862z"/></g></g></g></svg>