<svg height="512pt" viewBox="-55 0 512 512.00116" width="512pt" xmlns="http://www.w3.org/2000/svg"><path d="m365.050781 345.085938c-103.226562-52.402344-225.261719-52.402344-328.484375 0-22.433594 11.386718-36.566406 34.410156-36.566406 59.566406v97.109375c0 5.65625 4.585938 10.238281 10.242188 10.238281h381.132812c5.65625 0 10.242188-4.582031 10.242188-10.238281v-97.109375c-.003907-25.15625-14.136719-48.179688-36.566407-59.566406zm0 0" fill="#d7dee3"/><path d="m365.050781 345.085938c-8.8125-4.472657-17.769531-8.539063-26.832031-12.246094v57.957031c9.488281 11.609375 14.945312 26.324219 14.945312 41.871094v79.332031h38.210938c5.65625 0 10.238281-4.585938 10.238281-10.242188v-97.105468c0-25.15625-14.132812-48.179688-36.5625-59.566406zm0 0" fill="#ccd2d6"/><g fill="#fed6a6"><path d="m200.820312 335.8125 43.191407-37.558594v-66.507812h-86.40625v66.488281zm0 0"/><path d="m109.386719 109.691406h-15.707031c-13.332032 0-24.125 10.808594-24.125 24.136719v11.417969c0 13.328125 10.792968 24.136718 24.125 24.136718h15.707031zm0 0"/><path d="m292.226562 109.691406h15.710938c13.328125 0 24.121094 10.808594 24.121094 24.136719v11.417969c0 13.328125-10.792969 24.136718-24.121094 24.136718h-15.710938zm0 0"/></g><path d="m200.808594 2.941406c-56.230469.027344-101.773438 45.671875-101.664063 101.90625l.148438 80.304688c0 62.949218 70.886719 93.492187 101.515625 94.0625 30.628906-.570313 101.511718-31.113282 101.511718-94.0625l.152344-80.304688c.105469-56.234375-45.4375-101.878906-101.664062-101.90625zm0 0" fill="#ffe3c2"/><path d="m251.414062 16.433594-.132812 168.71875c0 48.789062-42.574219 78.105468-75.992188 89.09375 9.699219 3.191406 18.628907 4.839844 25.519532 4.96875 30.628906-.570313 101.511718-31.113282 101.511718-94.0625l.152344-80.304688c.070313-37.804687-20.488281-70.824218-51.058594-88.414062zm0 0" fill="#fed6a6"/><path d="m209.835938 190.238281h-7.476563c-6.226563 0-11.292969-5.066406-11.292969-11.296875v-22.683594c0-4.269531 3.457032-7.726562 7.726563-7.726562 4.265625 0 7.726562 3.457031 7.726562 7.726562v18.527344h3.316407c4.265624 0 7.726562 3.460938 7.726562 7.726563s-3.457031 7.726562-7.726562 7.726562zm0 0" fill="#d08f61"/><path d="m200.8125 239.472656c-17.121094 0-32.621094-7.691406-40.457031-20.074218-2.28125-3.605469-1.207031-8.378907 2.398437-10.660157 3.605469-2.28125 8.375-1.210937 10.660156 2.398438 4.953126 7.828125 15.707032 12.882812 27.398438 12.882812 11.6875 0 22.441406-5.054687 27.394531-12.886719 2.285157-3.605468 7.054688-4.675781 10.664063-2.394531 3.605468 2.28125 4.675781 7.054688 2.394531 10.660157-7.835937 12.382812-23.335937 20.074218-40.453125 20.074218zm0 0" fill="#c35f58"/><path d="m252.746094 153.214844c-4.265625 0-7.722656-3.457032-7.722656-7.726563v-10.335937c0-4.265625 3.457031-7.726563 7.722656-7.726563 4.269531 0 7.726562 3.460938 7.726562 7.726563v10.335937c0 4.269531-3.457031 7.726563-7.726562 7.726563zm0 0" fill="#844535"/><path d="m148.867188 153.214844c-4.269532 0-7.726563-3.457032-7.726563-7.726563v-10.335937c0-4.265625 3.460937-7.726563 7.726563-7.726563 4.265624 0 7.726562 3.460938 7.726562 7.726563v10.335937c0 4.269531-3.457031 7.726563-7.726562 7.726563zm0 0" fill="#844535"/><path d="m338.21875 332.816406c-16.828125-6.886718-34.046875-12.457031-51.507812-16.710937l-80.0625 112.609375c-3.808594 5.359375-11.792969 5.28125-15.496094-.148438l-76.671875-112.355468c-17.316407 4.238281-34.394531 9.773437-51.082031 16.605468v179.183594h274.820312zm0 0" fill="#d08f61"/><path d="m338.21875 332.816406c-2.082031-.851562-4.171875-1.683594-6.265625-2.496094-.039063-.015624-.082031-.03125-.125-.046874-8.414063-3.257813-16.917969-6.191407-25.496094-8.800782-.0625-.019531-.125-.039062-.1875-.054687-6.4375-1.953125-12.917969-3.726563-19.433593-5.3125l-24.894532 35.015625c18.6875 5.910156 37.015625 13.363281 54.78125 22.382812 8.503906 4.253906 15.816406 10.191406 21.617188 17.292969v-57.980469zm0 0" fill="#c67f4f"/><path d="m298.871094 19.855469c-38.765625-31.675781-83.902344-15.953125-83.902344-15.953125 70.257812 19.097656 87.5 105.714844 87.5 105.714844s17.453125 1.402343 23.445312-14.503907c6.796876-18.054687-2.941406-55.558593-27.042968-75.257812zm0 0" fill="#ccd2d6"/><path d="m102.75 19.855469c38.761719-31.675781 83.898438-15.953125 83.898438-15.953125-70.257813 19.097656-87.5 105.714844-87.5 105.714844s-17.453126 1.402343-23.441407-14.503907c-6.800781-18.054687 2.9375-55.558593 27.042969-75.257812zm0 0" fill="#d7dee3"/><path d="m240.863281 75.679688h-80.113281c-4.265625 0-7.726562-3.457032-7.726562-7.726563 0-4.265625 3.460937-7.726563 7.726562-7.726563h80.113281c4.269531 0 7.726563 3.460938 7.726563 7.726563 0 4.269531-3.457032 7.726563-7.726563 7.726563zm0 0" fill="#fed6a6"/><path d="m223.191406 103.371094h-44.765625c-4.269531 0-7.726562-3.460938-7.726562-7.726563 0-4.269531 3.457031-7.726562 7.726562-7.726562h44.765625c4.265625 0 7.722656 3.457031 7.722656 7.726562.003907 4.265625-3.457031 7.726563-7.722656 7.726563zm0 0" fill="#fed6a6"/><path d="m200.808594 279.214844c-1.640625-.03125-3.398438-.152344-5.25-.351563v30.777344c0 8.746094 3.578125 16.742187 9.445312 22.535156l39.003906-33.921875v-31.253906c-16.15625 7.976562-32.25 12.011719-43.199218 12.214844zm0 0" fill="#efc79c"/><path d="m252.265625 364.558594 34.449219-48.453125-24.882813-19.46875c-5.050781-3.71875-12.003906-3.441407-16.738281.675781l-44.285156 38.507812 45.710937 27.773438c1.78125 1.082031 3.839844 1.375 5.746094.964844zm0 0" fill="#b2b9bf"/><path d="m261.84375 351.085938 24.859375-34.988282-24.871094-19.460937c-5.050781-3.71875-12.007812-3.441407-16.742187.675781l-40.085938 34.859375c4.394532 4.335937 10.0625 7.433594 16.488282 8.679687 13.582031 2.636719 27.042968 6.066407 40.324218 10.269532zm0 0" fill="#a0a9af"/><path d="m155.121094 363.59375 45.707031-27.769531-44.28125-38.511719c-4.734375-4.117188-11.691406-4.394531-16.742187-.675781l-25.324219 19.574219 32.230469 47.230468c2.46875 1.625 5.742187 1.773438 8.410156.152344zm0 0" fill="#b2b9bf"/></svg>