<svg height="512pt" viewBox="-84 0 512 512" width="512pt" xmlns="http://www.w3.org/2000/svg"><path d="m109.851562 53.855469c4.417969-30.460938 30.644532-53.855469 62.328126-53.855469 31.941406 0 58.335937 23.78125 62.433593 54.605469" fill="#ccc"/><path d="m343.179688 242.285156c0 21.375-16.460938 38.890625-37.390626 40.5625-1.089843.09375-2.199218.140625-3.3125.140625-2.847656 0-5.625-.289062-8.308593-.851562h-245.15625c-2.683594.5625-5.460938.851562-8.308594.851562h-.027344c-22.476562-.019531-40.675781-18.226562-40.675781-40.703125 0-21.1875 16.191406-38.589844 36.878906-40.507812 1.261719-.128906 2.535156-.183594 3.824219-.183594 1.710937 0 3.386719.101562 5.042969.304688h251.6875c1.65625-.203126 3.332031-.304688 5.042968-.304688 2.414063 0 4.785157.210938 7.078126.617188 19.109374 3.339843 33.625 20.015624 33.625 40.074218zm0 0" fill="#ffd0a6"/><path d="m307.925781 202.210938v51.554687c0 10.011719-1.300781 19.753906-3.765625 29.082031-1.089844.09375-2.199218.140625-3.3125.140625-2.847656 0-5.625-.289062-8.308594-.851562h-245.15625c-2.683593.5625-5.460937.851562-8.308593.851562h-.027344c-2.480469-9.375-3.792969-19.152343-3.792969-29.21875v-51.992187c1.257813-.128906 2.535156-.1875 3.820313-.1875 1.710937 0 3.386719.101562 5.042969.308594h251.691406c1.65625-.207032 3.328125-.308594 5.039062-.308594 2.417969 0 4.785156.214844 7.078125.621094zm0 0" fill="#e8b182"/><path d="m318.898438 251.347656c-3.023438 0-5.90625-1.761718-7.191407-4.714844-3.273437-7.527343-13.164062-5.121093-14.28125-4.820312-4.171875 1.179688-8.46875-1.246094-9.648437-5.40625-1.183594-4.164062 1.261718-8.507812 5.421875-9.6875 8.296875-2.355469 25.839843-2.527344 32.882812 13.667969 1.726563 3.96875-.09375 8.585937-4.0625 10.308593-1.015625.441407-2.078125.652344-3.121093.652344zm0 0" fill="#dda378"/><path d="m24.28125 251.347656c-1.042969 0-2.105469-.210937-3.125-.652344-3.964844-1.730468-5.785156-6.347656-4.054688-10.316406 3.980469-9.148437 14.335938-17.632812 31.4375-14.011718 4.234376.894531 6.941407 5.054687 6.046876 9.289062-.898438 4.234375-5.058594 6.9375-9.289063 6.042969-3.992187-.839844-11.097656-1.324219-13.824219 4.9375-1.285156 2.949219-4.167968 4.710937-7.191406 4.710937zm0 0" fill="#dda378"/><path d="m295.792969 459.34375v52.65625h-248.417969v-52.65625c0-68.597656 55.605469-124.214844 124.203125-124.214844 9.707031 0 19.152344 1.117188 28.222656 3.21875 22.972657 5.339844 43.496094 17.054688 59.613281 33.160156 22.472657 22.484376 36.378907 53.535157 36.378907 87.835938zm0 0" fill="#3598ba"/><path d="m295.789062 459.34375v52.652344h-30.90625v-37.78125c0-4.328125-3.503906-7.835938-7.839843-7.835938-4.324219 0-7.835938 3.507813-7.835938 7.835938v37.78125h-145.398437v-52.652344c0-58.886719 40.992187-108.21875 95.984375-120.996094 22.980469 5.339844 43.5 17.050782 59.625 33.164063 22.476562 22.484375 36.371093 53.53125 36.371093 87.832031zm0 0" fill="#61b4d8"/><path d="m100.144531 357.703125c2.035157 37.699219 33.238281 67.636719 71.4375 67.636719 4.652344 0 9.195313-.449219 13.59375-1.296875 31.777344-6.101563 56.070313-33.226563 57.847657-66.339844" fill="#dda378"/><path d="m171.589844 37.433594c68.601562 0 124.210937 55.613281 124.210937 124.210937v91.378907c0 60.53125-43.308593 110.949218-100.621093 121.960937-6.5625 1.265625-13.300782 2.015625-20.1875 2.207031h-.167969c-1.1875.03125-2.375.042969-3.578125.039063-68.460938-.128907-123.867188-55.742188-123.867188-124.207031v-91.378907c0-68.597656 55.609375-124.210937 124.210938-124.210937zm0 0" fill="#ffd0a6"/><path d="m192.972656 375.386719c-5.859375 1.023437-11.867187 1.640625-17.980468 1.808593h-.167969c-1.191407.03125-2.371094.039063-3.574219.039063-68.472656-.132813-123.871094-55.742187-123.871094-124.207031v-91.386719c0-68.597656 55.609375-124.207031 124.21875-124.207031 7.3125 0 14.46875.628906 21.441406 1.851562-58.390624 10.15625-102.765624 61.074219-102.765624 122.355469v91.386719c-.003907 61.242187 44.332031 112.203125 102.699218 122.359375zm0 0" fill="#e8b182"/><path d="m171.585938 316.324219c-16.679688 0-32.363282-6.496094-44.15625-18.289063-3.0625-3.0625-3.0625-8.023437 0-11.082031 3.0625-3.0625 8.023437-3.0625 11.082031 0 8.835937 8.832031 20.578125 13.699219 33.070312 13.699219 12.492188 0 24.238281-4.867188 33.070313-13.699219 3.0625-3.0625 8.023437-3.0625 11.082031 0 3.0625 3.058594 3.0625 8.023437.003906 11.082031-11.792969 11.792969-27.472656 18.289063-44.152343 18.289063zm0 0" fill="#dda378"/><path d="m295.796875 161.640625v46.027344c-115.472656-37.78125-124.207031-108.25-124.207031-108.25s-8.746094 70.46875-124.21875 108.25v-46.027344c0-68.597656 55.609375-124.207031 124.21875-124.207031 68.597656 0 124.207031 55.609375 124.207031 124.207031zm0 0" fill="#e6e6e6"/><path d="m192.488281 39.199219c-58.648437 9.925781-103.308593 60.972656-103.308593 122.441406v28.871094c-12.089844 6.15625-25.945313 11.964843-41.804688 17.15625v-46.027344c0-68.597656 55.609375-124.207031 124.214844-124.207031 7.125 0 14.105468.597656 20.898437 1.765625zm0 0" fill="#ccc"/><path d="m137.816406 236.207031c-4.328125 0-7.835937-3.511719-7.835937-7.835937v-20.082032c0-4.328124 3.507812-7.839843 7.835937-7.839843 4.332032 0 7.839844 3.511719 7.839844 7.839843v20.082032c0 4.324218-3.507812 7.835937-7.839844 7.835937zm0 0" fill="#1a414c"/><path d="m205.363281 236.207031c-4.328125 0-7.835937-3.511719-7.835937-7.835937v-20.082032c0-4.328124 3.507812-7.839843 7.835937-7.839843s7.835938 3.511719 7.835938 7.839843v20.082032c0 4.324218-3.507813 7.835937-7.835938 7.835937zm0 0" fill="#1a414c"/><g fill="#f45395"><path d="m137.816406 282.246094c-16.992187 0-30.8125-13.824219-30.8125-30.816406 0-16.992188 13.820313-30.816407 30.8125-30.816407 16.992188 0 30.816406 13.824219 30.816406 30.816407 0 16.992187-13.824218 30.816406-30.816406 30.816406zm0-45.957032c-8.347656 0-15.140625 6.792969-15.140625 15.140626 0 8.351562 6.792969 15.140624 15.140625 15.140624 8.351563 0 15.140625-6.789062 15.140625-15.140624 0-8.347657-6.789062-15.140626-15.140625-15.140626zm0 0"/><path d="m205.363281 282.246094c-16.992187 0-30.816406-13.824219-30.816406-30.816406 0-16.992188 13.824219-30.816407 30.816406-30.816407 16.992188 0 30.816407 13.824219 30.816407 30.816407 0 16.992187-13.824219 30.816406-30.816407 30.816406zm0-45.957032c-8.347656 0-15.140625 6.792969-15.140625 15.140626 0 8.351562 6.792969 15.140624 15.140625 15.140624 8.347657 0 15.140625-6.789062 15.140625-15.140624 0-8.347657-6.792968-15.140626-15.140625-15.140626zm0 0"/><path d="m182.382812 259.265625h-21.585937c-4.328125 0-7.835937-3.507813-7.835937-7.835937 0-4.328126 3.507812-7.835938 7.835937-7.835938h21.585937c4.332032 0 7.839844 3.507812 7.839844 7.835938 0 4.328124-3.511718 7.835937-7.839844 7.835937zm0 0"/></g></svg>