<svg id="Capa_1" enable-background="new 0 0 512 512" height="512" viewBox="0 0 512 512" width="512" xmlns="http://www.w3.org/2000/svg"><g><path d="m394.378 465.692h-276.756c-14.854 0-26.896-12.042-26.896-26.896v-290.039c0-82.156 66.601-148.757 148.757-148.757h33.033c82.156 0 148.757 66.601 148.757 148.757v290.039c.001 14.855-12.041 26.896-26.895 26.896z" fill="#365e7d"/><path d="m272.517 0h-31.201c82.156 0 148.757 66.601 148.757 148.757v290.039c0 14.854-12.042 26.896-26.896 26.896h31.201c14.854 0 26.896-12.042 26.896-26.896v-290.039c0-82.156-66.601-148.757-148.757-148.757z" fill="#2b4d66"/><path d="m303.152 347.718h-19.368-55.567-19.368c-38.542 0-69.786 31.244-69.786 69.786v85.608c0 4.909 3.979 8.888 8.888 8.888h216.099c4.909 0 8.888-3.979 8.888-8.888v-85.608c0-38.542-31.244-69.786-69.786-69.786z" fill="#ffe07d"/><path d="m303.152 347.718h-34.004c38.542 0 69.786 31.244 69.786 69.786v85.608c0 4.909-3.979 8.888-8.888 8.888h34.004c4.909 0 8.888-3.979 8.888-8.888v-85.608c0-38.542-31.244-69.786-69.786-69.786z" fill="#ffd064"/><path d="m275.45 296.259-37.314-2.195c-9.527 0-9.945 44.635-9.945 44.635v27.325c0 15.344 12.439 27.784 27.784 27.784 15.344 0 27.784-12.439 27.784-27.784v-27.324c-.001 0 1.218-42.441-8.309-42.441z" fill="#eaac9d"/><path d="m256 347.718c-74.046 0-134.073-60.026-134.073-134.072v-81.091c0-1.947 1.583-3.518 3.53-3.522 62.052-.114 116.894-9.002 165.813-40.613 1.462-.944 3.415-.643 4.462.747 22.091 29.327 52.22 37.443 90.826 39.677 1.969.114 3.514 1.731 3.514 3.703v81.1c0 74.044-60.026 134.071-134.072 134.071z" fill="#ffcbbe"/><path d="m386.559 128.843c-11.36-.657-21.98-1.831-31.883-3.898v88.7c0 68.046-50.694 124.246-116.374 132.908 5.792.764 11.698 1.164 17.698 1.164 74.046 0 134.072-60.026 134.072-134.072v-81.1c0-1.971-1.545-3.588-3.513-3.702z" fill="#eaac9d"/><g><g><path d="m222.433 198.614c-4.268 0-7.726-3.459-7.726-7.726 0-5.493-4.469-9.963-9.963-9.963s-9.963 4.469-9.963 9.963c0 4.267-3.459 7.726-7.726 7.726s-7.726-3.459-7.726-7.726c0-14.014 11.401-25.415 25.415-25.415s25.415 11.401 25.415 25.415c.001 4.266-3.458 7.726-7.726 7.726z" fill="#365e7d"/></g><g><path d="m324.945 198.614c-4.268 0-7.726-3.459-7.726-7.726 0-5.493-4.47-9.963-9.964-9.963s-9.963 4.469-9.963 9.963c0 4.267-3.459 7.726-7.726 7.726s-7.726-3.459-7.726-7.726c0-14.014 11.401-25.415 25.415-25.415 14.015 0 25.417 11.401 25.417 25.415 0 4.266-3.459 7.726-7.727 7.726z" fill="#365e7d"/></g></g><g fill="#efa5c3"><circle cx="180.38" cy="246.271" r="17.151"/><circle cx="331.62" cy="246.271" r="17.151"/></g><g><path d="m256 302.991c-23.752 0-45.101-14.127-54.389-35.991-1.669-3.928.162-8.464 4.09-10.132 3.927-1.667 8.464.162 10.132 4.09 6.861 16.147 22.628 26.58 40.168 26.58s33.308-10.434 40.169-26.58c1.669-3.928 6.206-5.757 10.132-4.09 3.928 1.668 5.759 6.206 4.09 10.132-9.292 21.865-30.641 35.991-54.392 35.991z" fill="#da4a54"/></g></g></svg>